<?xml version="1.0" standalone="no"?>
<!DOCTYPE svg PUBLIC "-//W3C//DTD SVG 20010904//EN"
 "http://www.w3.org/TR/2001/REC-SVG-20010904/DTD/svg10.dtd">
<svg version="1.0" xmlns="http://www.w3.org/2000/svg"
 width="982.000000pt" height="981.000000pt" viewBox="0 0 982.000000 981.000000"
 preserveAspectRatio="xMidYMid meet">

<g transform="translate(0.000000,981.000000) scale(0.100000,-0.100000)"
fill="#000000" stroke="none">
<path d="M661 9799 c-163 -29 -294 -100 -421 -228 -82 -82 -103 -110 -142
-191 -68 -139 -83 -200 -82 -355 0 -179 36 -299 128 -436 20 -30 830 -848
1848 -1867 l1813 -1812 -1821 -1823 c-1443 -1443 -1829 -1835 -1858 -1884
-268 -451 -42 -1020 461 -1165 101 -30 303 -32 402 -4 80 22 175 64 238 106
26 18 866 850 1866 1849 l1817 1816 1813 -1813 c1064 -1065 1834 -1828 1866
-1849 140 -92 259 -127 436 -127 155 0 218 14 355 81 82 41 108 60 196 147 87
88 106 114 147 196 67 137 81 200 81 355 0 182 -35 297 -134 446 -29 44 -613
635 -1846 1869 l-1804 1805 1814 1815 c1781 1783 1814 1816 1854 1895 53 104
80 191 91 292 37 344 -157 673 -478 808 -93 39 -181 55 -302 55 -170 0 -318
-47 -453 -144 -34 -25 -864 -848 -1846 -1830 l-1785 -1786 -1810 1808 c-1199
1198 -1830 1821 -1868 1846 -73 48 -166 90 -242 110 -73 20 -260 29 -334 15z"/>
</g>
</svg>
