<?xml version="1.0" standalone="no"?>
<!DOCTYPE svg PUBLIC "-//W3C//DTD SVG 20010904//EN"
 "http://www.w3.org/TR/2001/REC-SVG-20010904/DTD/svg10.dtd">
<svg version="1.0" xmlns="http://www.w3.org/2000/svg"
 width="800.000000pt" height="800.000000pt" viewBox="0 0 800.000000 800.000000"
 preserveAspectRatio="xMidYMid meet">

<g transform="translate(0.000000,800.000000) scale(0.100000,-0.100000)"
fill="#000000" stroke="none">
<path d="M883 6486 c-219 -53 -383 -261 -383 -486 0 -230 172 -442 398 -489
75 -16 6129 -16 6204 0 226 47 398 259 398 489 0 230 -172 442 -398 489 -81
17 -6148 14 -6219 -3z"/>
<path d="M883 4486 c-219 -53 -383 -261 -383 -486 0 -230 172 -442 398 -489
75 -16 6129 -16 6204 0 226 47 398 259 398 489 0 230 -172 442 -398 489 -81
17 -6148 14 -6219 -3z"/>
<path d="M883 2486 c-219 -53 -383 -261 -383 -486 0 -230 172 -442 398 -489
75 -16 6129 -16 6204 0 226 47 398 259 398 489 0 230 -172 442 -398 489 -81
17 -6148 14 -6219 -3z"/>
</g>
</svg>
